<?xml version="1.0" encoding="utf-8"?>
<!-- Generator: Adobe Illustrator 24.0.2, SVG Export Plug-In . SVG Version: 6.00 Build 0)  -->
<svg version="1.1" id="Layer_1" xmlns="http://www.w3.org/2000/svg" xmlns:xlink="http://www.w3.org/1999/xlink" x="0px" y="0px"
	 viewBox="0 0 200 94" style="enable-background:new 0 0 200 94;" xml:space="preserve">
<style type="text/css">
	.st0{fill:#CEE87C;}
	.st1{display:none;}
	.st2{fill:#001524;}
	.st3{fill:#E5F1D7;}
	.st4{fill:#DBEBC7;}
	.st5{fill:#BBD995;}
	.st6{fill:#BFDC9C;}
	.st7{fill:#B1D485;}
	.st8{fill:none;}
	.st9{fill:#62A043;}
	.st10{fill:#8EBA77;}
	.st11{fill:#C5DCB9;}
	.st12{fill:#62A042;}
	.st13{font-family:'Haettenschweiler';}
	.st14{font-size:15.0815px;}
</style>
<path class="st0" d="M148.4,24.3c3.7,2,3.7,2,1.1,4.7c-0.5,0.5-0.7,1-0.7,1.6c-0.1,1.6-1.1,3-3.6,4.1c-1.6,0.7-3,1.6-4.5,2.4
	c0.1,0.2-1.5,0.8,0.2,0.7c1.1-0.1,2.3,0.3,3.4-0.2c3.7-0.3,7.3-0.7,11-0.5c0.9,0,1.3,0.1,1.4,0.7c0.1,1,0.7,1.8,3.1,1.8
	c0.6,0,1.3,0.2,1,0.6c-0.7,0.9,0.5,0.9,1.4,1.1c1.2,0.3,1.1,0.7-0.1,1.1c-0.7,0.2-1.6,0.4-2.2,0.7c-0.8,0.4-2.5,0.5-2,1.2
	c0.5,0.7,2.1,0.9,3.5,0.8c1.2-0.1,2.3-0.4,3.5-0.6c1-0.2,1.2,0.1,1.6,0.4c1.8,1.1,4.2,0.6,6.6,0.5c0.7,1.4,3,1.3,5.1,1.4
	c0.9,0,1.3,0.2,1.2,0.6c-0.1,0.9-0.8,1.8-1.8,2.5c-0.3,0.4-0.6,0.9-0.9,1.3c-0.2,0.3-1.8,0.7,0.1,1c1.1,0.2,0.9,1.3-0.2,1.3
	c-3.1,0.2-1.2,1.2-1.6,1.9c-1.9,0.8-4.2,1.1-6.4,1.4c-7.7,1-15.1,2.6-22.7,3.7c-2.2,0.3-4.4,0.8-6.7,0.9c-9.9,0.7-19.1,3-28.4,5
	c-7.8,1.7-15.5,3.7-23.2,5.5c-8.3,1.9-16.5,4.1-24.7,6.2c-2,0.1-4.3,1.1-5.9-0.2c-0.1-1-0.9-1.6-3.1-1.7c-1.6-0.1-3.6,0-4.3-1
	c-1.8-1.6-2-1.6-5.4-1.2c-3,0.4-5.7,0.3-7.6-1c-1.6-0.3-3.6,0.2-4.9-0.6c-0.3-0.1-0.5-0.2-0.6-0.4c-0.1-0.3,0.1-0.7-0.3-0.9
	c-0.3-0.2-0.6-0.5-1-0.7c-0.9-0.4-2.7,0-3-1c-0.4-0.2-0.7-0.5-0.5-0.6c2-1.4,2-3.1,4.1-4.5c2.3-1.6,4-3.3,6.7-4.7
	c1.2-1.3,3.6-2.1,5.2-3.2c0.2-0.1,0.4-0.2,0.4-0.2c-0.2-0.2,0.2,0-0.3,0c-0.2,0.1-0.4,0.2-0.6,0.3c-0.5,0.2-0.9,0.4-1.3,0.7
	c-2.1,0.9-3.2,0.4-3.8-0.6c0.2-1.8,1.3-3.4,3.8-4.8c1-0.6,2-1.3,2.3-2c0.7-1.3,2.1-2.3,3.4-3.4c2.3-2,5.7-3.1,9-4.3
	c0.7-0.3,1.5-0.4,2.3-0.6c1.3-0.5,3.6,0.3,4.2-1.1c6.7-2.6,13.1-5.4,20.6-7.2c5.1-1.3,9.5-3.3,14.8-4.4c5.3-1.2,10.4-2.7,16-3.2
	c2.1-0.3,4.2-0.6,6.4-0.5c0.6,1.1-1.8,0.6-2.1,1.1c0.9-0.4,2.2-0.4,3.2-0.8c1.4-0.3,2.7-0.7,4-1c-1.5,0-3.1,1.2-4.5,0
	c0-0.2,0.1-0.3,0.1-0.5c0-0.1,0-0.2,0-0.3c2.8-1,5.9-1.4,9-1.7c5.3-0.4,10.7-1,16-0.3c0.3,0.1,0.5,0.2,0.8,0.3l0,0
	C147,22.6,146.6,23.8,148.4,24.3z"/>
<g>
	<g class="st1">
	</g>
	<g>
		<g>
			<path class="st2" d="M1.7,52.6c2-0.3,3-0.4,5-0.6c0,2.5,0,3.8,0,6.3c0,0.4,0.3,0.6,0.8,0.5c0.5-0.1,0.8-0.3,0.8-0.7
				c0-8.6,0-12.9,0-21.5c2.3-0.2,3.4-0.4,5.7-0.6c0,8.4,0,12.6,0,21.1c0,3-2.2,4.7-6.5,5.2c-1.5,0.2-2.9,0-4.1-0.6
				c-1.2-0.6-1.8-1.5-1.8-2.7C1.7,56.4,1.7,55.1,1.7,52.6z"/>
			<path class="st2" d="M15.4,58.2c0-4.6,0-6.9,0-11.4c0-2.3,1.5-3.6,4.6-3.8c3-0.2,4.5,0.9,4.5,3.2c0,4.6,0,6.9,0,11.4
				c0,1-0.4,1.8-1.3,2.5c-0.8,0.6-1.9,0.9-3.3,1C16.9,61.3,15.4,60.4,15.4,58.2z M20.6,58.1c0-4.8,0-7.3,0-12.1
				c0-0.4-0.2-0.5-0.6-0.5c-0.4,0-0.7,0.2-0.7,0.6c0,4.8,0,7.3,0,12.1c0,0.4,0.2,0.5,0.7,0.5C20.4,58.6,20.6,58.4,20.6,58.1z"/>
			<path class="st2" d="M35.5,60.3c-1.6,0-2.4,0.1-4,0.1c-0.4-0.5-0.6-1.9-0.6-4.3c0,0,0,0,0,0c0-0.4,0-0.6,0-1.1c0-1.5,0-2.2,0-2.3
				c0-0.6-0.4-0.9-1.2-0.9c0,3.4,0,5.1,0,8.5c-1.6,0.1-2.4,0.1-4,0.2c0-7.1,0-10.7,0-17.8c2-0.1,3-0.1,4.9-0.2
				c1.1,0,2.1,0.2,2.9,0.7c0.8,0.5,1.3,1.3,1.3,2.4c0,0.9,0,1.3,0,2.1c0,1.4-0.8,2.3-2.5,2.9c1.7,0.3,2.5,1.3,2.5,2.9
				c0,0.8,0,1.2-0.1,1.9C34.7,58.3,35,59.9,35.5,60.3z M30.9,48.8c0-1.2,0-1.8,0-2.9c0-0.6-0.4-0.9-1.2-0.9c0,1.9,0,2.9,0,4.8
				C30.5,49.7,30.9,49.4,30.9,48.8z"/>
			<path class="st2" d="M45,60.2c-0.8,0-1.2,0-1.9,0c-0.2-0.4-0.3-0.6-0.5-1c-0.9,0.8-1.8,1.1-2.8,1.2c-1,0-1.8-0.2-2.5-0.7
				c-0.7-0.5-1.1-1.2-1.1-2.3c0-4.6,0-7,0-11.6c0-2.3,1.5-3.5,4.5-3.5c2.9,0,4.3,1,4.3,3.1c0,1.3,0,2,0,3.3c-1.5,0-2.2,0-3.6,0
				c0-1.4,0-2.2,0-3.6c0-0.3-0.2-0.4-0.6-0.4c-0.4,0-0.6,0.1-0.6,0.4c0,4.9,0,7.4,0,12.3c0,0.3,0.2,0.4,0.6,0.4
				c0.4,0,0.6-0.1,0.6-0.4c0-1.3,0-2,0-3.3c-0.3,0-0.5,0-0.8,0c0-1.1,0-1.6,0-2.7c1.8,0,2.7,0,4.4,0C45,54.9,45,56.7,45,60.2z"/>
			<path class="st2" d="M54,60.3c-3.1-0.1-4.7-0.1-7.8-0.1c0-7.1,0-10.7,0-17.8c3.1,0,4.7,0,7.8,0.1c0,0.9,0,1.4,0,2.3
				c-1.5,0-2.3,0-3.8-0.1c0,1.9,0,2.9,0,4.8c1.4,0,2,0,3.4,0.1c0,0.9,0,1.3,0,2.2c-1.4,0-2,0-3.4-0.1c0,2.5,0,3.7,0,6.2
				c1.5,0,2.3,0,3.8,0.1C54,59,54,59.4,54,60.3z"/>
			<path class="st2" d="M72.8,38.9c-2-0.1-3-0.2-5-0.2c0,2.7,0,4.1,0,6.9c1.8,0.1,2.7,0.1,4.5,0.2c0,1.2,0,1.8,0,3.1
				c-1.8-0.1-2.7-0.1-4.5-0.2c0,4.9,0,7.3,0,12.2c-2.3-0.1-3.4-0.2-5.7-0.2c0-10.2,0-15.2,0-25.4c4.3,0.2,6.4,0.3,10.7,0.5
				C72.8,37,72.8,37.6,72.8,38.9z"/>
			<path class="st2" d="M81.7,61.6c-3.1-0.2-4.7-0.3-7.8-0.4c0-7.1,0-10.7,0-17.8c3.1,0.2,4.7,0.3,7.8,0.4c0,0.9,0,1.4,0,2.3
				c-1.5-0.1-2.3-0.1-3.8-0.2c0,1.9,0,2.9,0,4.8c1.4,0.1,2,0.1,3.4,0.2c0,0.9,0,1.3,0,2.2c-1.4-0.1-2-0.1-3.4-0.2c0,2.5,0,3.7,0,6.2
				c1.5,0.1,2.3,0.1,3.8,0.2C81.7,60.2,81.7,60.7,81.7,61.6z"/>
			<path class="st2" d="M90.2,62.1c-3-0.2-4.5-0.3-7.5-0.5c0-7.1,0-10.7,0-17.8c1.6,0.1,2.4,0.1,4,0.2c0,6.2,0,9.3,0,15.5
				c1.4,0.1,2.1,0.1,3.5,0.2C90.2,60.7,90.2,61.2,90.2,62.1z"/>
			<path class="st2" d="M95,62.4c-1.6-0.1-2.4-0.2-4-0.3c0-7.1,0-10.7,0-17.8c1.6,0.1,2.4,0.2,4,0.3C95,51.8,95,55.3,95,62.4z"/>
			<path class="st2" d="M107.4,63.2c-1.7-0.1-2.6-0.2-4.3-0.3c-0.7-2.3-1.1-3.5-1.8-5.8c-0.7,2.2-1,3.4-1.7,5.6
				c-1.5-0.1-2.3-0.2-3.8-0.3c1.3-4,1.9-5.9,3.1-9.9c-0.9-3.1-1.4-4.7-2.3-7.8c1.5,0.1,2.3,0.2,3.8,0.3c0.6,2.1,0.9,3.2,1.4,5.3
				c0.6-2,1-3,1.6-5.1c1.4,0.1,2.2,0.1,3.6,0.2c-1.1,3.2-1.6,4.8-2.7,8C105.5,57.4,106.1,59.3,107.4,63.2z"/>
			<path class="st2" d="M127.9,64.5c-1.1-0.1-1.6-0.1-2.7-0.1c-0.3-0.6-0.4-0.9-0.7-1.4c-1.3,1-2.6,1.5-4,1.4
				c-1.4-0.1-2.6-0.5-3.6-1.3c-1-0.8-1.5-1.9-1.5-3.4c0-6.6,0-9.9,0-16.6c0-3.3,2.2-4.8,6.5-4.6c4.1,0.2,6.1,1.8,6.1,4.8
				c0,1.9,0,2.8,0,4.7c-2.1-0.1-3.1-0.2-5.2-0.3c0-2.1,0-3.1,0-5.1c0-0.4-0.3-0.6-0.8-0.7c-0.6,0-0.8,0.2-0.8,0.6c0,7,0,10.6,0,17.6
				c0,0.4,0.3,0.6,0.8,0.7c0.6,0,0.8-0.2,0.8-0.6c0-1.9,0-2.8,0-4.7c-0.5,0-0.7,0-1.2-0.1c0-1.6,0-2.3,0-3.9
				c2.5,0.1,3.8,0.2,6.3,0.3C127.9,56.9,127.9,59.4,127.9,64.5z"/>
			<path class="st2" d="M129.2,61.5c0-4.6,0-6.9,0-11.4c0-2.3,1.5-3.4,4.6-3.2c3,0.1,4.5,1.3,4.5,3.6c0,4.6,0,6.9,0,11.4
				c0,1-0.4,1.8-1.3,2.3c-0.8,0.5-1.9,0.8-3.3,0.7C130.7,64.8,129.2,63.6,129.2,61.5z M134.4,61.9c0-4.8,0-7.3,0-12.1
				c0-0.4-0.2-0.5-0.6-0.6c-0.4,0-0.7,0.1-0.7,0.5c0,4.8,0,7.3,0,12.1c0,0.4,0.2,0.5,0.7,0.6C134.2,62.5,134.4,62.3,134.4,61.9z"/>
			<path class="st2" d="M149.6,65.2c-1.6,0-2.5,0-4.1-0.1c-1.1-3.8-1.6-5.7-2.7-9.5c0,3.8,0,5.7,0,9.5c-1.3,0-2-0.1-3.3-0.1
				c0-7.1,0-10.7,0-17.8c1.8,0.1,2.7,0.1,4.5,0.1c0.9,3.3,1.4,4.9,2.3,8.2c0-3.2,0-4.9,0-8.1c1.3,0,2,0,3.3,0.1
				C149.6,54.6,149.6,58.1,149.6,65.2z"/>
			<path class="st2" d="M159.6,65.3c-3.6,0-5.4,0-9,0c0-0.9,0-1.4,0-2.3c1.8-5.3,2.7-7.9,4.4-13.2c-1.7,0-2.5,0-4.2,0
				c0-0.9,0-1.4,0-2.3c3.4,0,5.1,0.1,8.5,0c0,0.9,0,1.4,0,2.3c-1.8,5.3-2.6,7.9-4.4,13.2c1.9,0,2.8,0,4.7,0
				C159.6,63.9,159.6,64.4,159.6,65.3z"/>
			<path class="st2" d="M171.4,65c-1.6,0.1-2.4,0.1-4,0.1c-0.3-1.9-0.4-2.9-0.7-4.8c-0.7,0-1.1,0-1.8,0c-0.3,1.9-0.4,2.9-0.7,4.8
				c-1.6,0-2.4,0-4,0.1c1.2-7.1,1.8-10.7,3-17.8c2,0,3-0.1,5.1-0.1C169.6,54.4,170.2,58,171.4,65z M166.4,57.9
				c-0.2-2.1-0.3-3.2-0.6-5.3c-0.2,2.1-0.3,3.2-0.5,5.3C165.7,58,166,57.9,166.4,57.9z"/>
			<path class="st2" d="M179.8,64.6c-3,0.2-4.5,0.3-7.5,0.4c0-7.1,0-10.7,0-17.8c1.6-0.1,2.4-0.1,4-0.2c0,6.2,0,9.3,0,15.5
				c1.4-0.1,2.1-0.1,3.5-0.2C179.8,63.2,179.8,63.7,179.8,64.6z"/>
			<path class="st2" d="M188.5,63.9c-3.1,0.3-4.7,0.4-7.8,0.6c0-7.1,0-10.7,0-17.8c3.1-0.2,4.7-0.3,7.8-0.6c0,0.9,0,1.4,0,2.3
				c-1.5,0.1-2.3,0.2-3.8,0.3c0,1.9,0,2.9,0,4.8c1.4-0.1,2-0.2,3.4-0.3c0,0.9,0,1.3,0,2.2c-1.4,0.1-2,0.2-3.4,0.3c0,2.5,0,3.7,0,6.2
				c1.5-0.1,2.3-0.2,3.8-0.3C188.5,62.5,188.5,63,188.5,63.9z"/>
			<path class="st2" d="M198.3,62.8c-3.6,0.5-5.4,0.7-9,1c0-0.9,0-1.4,0-2.3c1.8-5.5,2.7-8.2,4.4-13.7c-1.7,0.2-2.5,0.3-4.2,0.4
				c0-0.9,0-1.4,0-2.3c3.4-0.3,5.1-0.5,8.5-1c0,0.9,0,1.4,0,2.3c-1.8,5.5-2.6,8.2-4.4,13.7c1.9-0.2,2.8-0.3,4.7-0.6
				C198.3,61.4,198.3,61.8,198.3,62.8z"/>
		</g>
	</g>
</g>
<g>
	<path class="st3" d="M113.4,12.6"/>
	<path class="st4" d="M103.6,23.4"/>
	<path class="st4" d="M100.5,24.8c-0.1,0.2-0.1,0.4,0.1,0.4"/>
	<path class="st5" d="M112.4,19.3c0.1,0.2,0.2,0.4,0.4,0.6"/>
	<path class="st5" d="M116,19.8"/>
	<path class="st6" d="M129.1,29.1C129.1,29.1,129.1,29,129.1,29.1c-0.2-0.5-0.6-0.5-1-0.5C128.5,28.8,128.8,29,129.1,29.1z"/>
	<path class="st7" d="M64,27.8c0-0.2,0-0.3,0-0.5c-0.2,0-0.4,0-0.4,0.1"/>
</g>
<g>
	<path class="st8" d="M8.9,87c-0.2,0.1-0.5,0.1-0.7,0.2C8.5,87.2,8.7,87.2,8.9,87z"/>
	<path class="st8" d="M5.9,87.9L5.9,87.9L5.9,87.9c0.1,0,0.1,0,0.2,0c0,0,0,0,0-0.1C6.1,87.9,6,87.9,5.9,87.9z"/>
	<path class="st9" d="M67.7,87C50.8,87,33.9,87,17,87c-1.5,1-3.8-0.2-5.2,1c0.6,0.1,1.2,0.2,1.8,0.3c0.5,0,1,0,1.4,0.2
		c0.9,0,1.7-0.1,2.6-0.1c16.7,0,33.3,0.1,50,0.1c1,0,2.9,0.6,3-0.6C70.7,86.6,68.8,87,67.7,87z"/>
	<path class="st10" d="M8.2,87.2c-0.7,0.2-1.4,0.4-2.1,0.6c0,0,0,0,0,0.1c1.9,0,3.8,0,5.6,0.1c0,0-0.1,0-0.1-0.1
		c1.4-1.6,3.7-0.2,5.4-0.9c-2.7,0-5.4,0-8.1,0l0,0C8.7,87.2,8.5,87.2,8.2,87.2z"/>
	<path class="st10" d="M11.6,87.9c0,0,0.1,0.1,0.1,0.1c0,0,0,0,0,0c1.4-1.1,3.7,0,5.2-1C15.4,87.8,13,86.4,11.6,87.9z"/>
	<path class="st11" d="M4.4,88.2c-0.3-0.1-0.5-0.1-0.8-0.2C3.9,88.1,4.2,88.2,4.4,88.2z"/>
	<path class="st11" d="M5.9,87.9c0.1,0,0.1,0,0.2-0.1c0-1,1.2-0.6,2.1-0.6c0.2-0.1,0.5-0.1,0.7-0.2l0,0c-1.7,0-3.4,0-5.2,0
		c-0.9,0.9-2.8,0-3.7,1v0c1.2,0,2.4,0,3.7,0.1C4.4,88,5.2,88,5.9,87.9C5.9,87.9,5.9,87.9,5.9,87.9z"/>
	<path class="st11" d="M6.1,87.9c0.7-0.2,1.4-0.4,2.1-0.6C7.3,87.3,6.1,86.9,6.1,87.9z"/>
</g>
<g>
	<path class="st8" d="M194.3,87.5c0,0.1,0,0.1,0,0.2c0.1,0,0.1-0.1,0.2-0.2l0,0C194.4,87.5,194.3,87.5,194.3,87.5z"/>
	<path class="st12" d="M189,87.5c-0.6-0.1-1.1-0.2-1.7-0.3c-0.5,0-0.9,0-1.3-0.2c-1.1,0-2.3,0.1-3.5,0.1c-15.4,0-30.8-0.1-46.2-0.1
		c-0.9,0-2.4-0.5-2.5,0.7c-0.1,1.2,1.5,0.8,2.4,0.8c16,0,31.9,0,47.9-0.1C185.5,87.5,187.6,88.6,189,87.5z"/>
	<path class="st10" d="M194.3,87.7c0,0,0-0.1,0-0.2c-1.8,0-3.5,0-5.3-0.1c0,0,0.1,0,0.1,0.1c-1.3,1.6-3.5,0.2-5,0.9
		c2.5,0,5.1,0,7.6,0c0,0,0,0,0,0C192.3,87.8,193.6,88.2,194.3,87.7z"/>
	<path class="st10" d="M189.1,87.5c0,0-0.1-0.1-0.1-0.1c0,0,0,0,0,0c-1.3,1.1-3.5,0-4.9,1C185.6,87.7,187.8,89.1,189.1,87.5z"/>
	<path class="st11" d="M200,87.5L200,87.5c-1.1,0-2.3,0-3.4-0.1l0,0c-0.7,0.5-1.4,0.5-2.2,0.1c0,0.1-0.1,0.1-0.2,0.2
		c-0.1,1.2-2,0.1-2.6,0.7c0,0,0,0,0,0c1.6,0,3.2,0,4.8,0C197.4,87.6,199.2,88.5,200,87.5z"/>
	<path class="st11" d="M194.3,87.7c-0.7,0.5-1.9,0.1-2.6,0.7C192.3,87.8,194.2,88.9,194.3,87.7z"/>
	<path class="st11" d="M196.6,87.4c-0.7,0-1.5,0.1-2.2,0.1C195.2,87.9,195.9,87.9,196.6,87.4z"/>
</g>
<text transform="matrix(0.8606 0 0 1 70.7979 91.8389)" class="st2 st13 st14">WEB DEBELOPER</text>
</svg>
